<svg width="118" height="98" viewBox="0 0 118 98" fill="none" xmlns="http://www.w3.org/2000/svg">
<path d="M45.98 6.92178C37.2298 2.74405 24.9993 0.697566 8.62501 0.62491C7.08075 0.603929 5.56679 1.05423 4.28501 1.91577C3.23292 2.6269 2.3717 3.58567 1.77709 4.70774C1.18248 5.82981 0.872703 7.08081 0.875013 8.35069V77.6405C0.875013 82.3244 4.20751 85.858 8.62501 85.858C25.8373 85.858 43.1028 87.4661 53.4442 97.2408C53.5857 97.3751 53.7635 97.4649 53.9556 97.499C54.1477 97.5331 54.3455 97.51 54.5246 97.4326C54.7037 97.3552 54.856 97.2269 54.9628 97.0636C55.0695 96.9003 55.1259 96.7093 55.125 96.5142V14.8704C55.1254 14.3195 55.0076 13.775 54.7795 13.2736C54.5513 12.7723 54.2182 12.3257 53.8027 11.9641C51.4339 9.93904 48.8026 8.24295 45.98 6.92178ZM113.715 1.9085C112.433 1.04911 110.919 0.601322 109.375 0.62491C93.0007 0.697566 80.7702 2.73436 72.02 6.92178C69.1976 8.24055 66.5656 9.93331 64.1949 11.9544C63.7803 12.3166 63.448 12.7634 63.2203 13.2647C62.9927 13.7659 62.8749 14.3101 62.875 14.8607V96.5094C62.8749 96.6968 62.9301 96.8801 63.0338 97.0363C63.1375 97.1925 63.285 97.3146 63.4578 97.3873C63.6306 97.46 63.821 97.48 64.0051 97.4449C64.1892 97.4098 64.3589 97.3211 64.4928 97.1899C70.7098 91.0141 81.6203 85.8507 109.385 85.8531C111.44 85.8531 113.411 85.0366 114.865 83.5832C116.318 82.1298 117.135 80.1585 117.135 78.1031V8.35311C117.138 7.08072 116.827 5.8272 116.231 4.70324C115.634 3.57928 114.77 2.61945 113.715 1.9085Z" fill="#1B4A4B"/>
</svg>
