<svg width="124" height="106" viewBox="0 0 124 106" fill="none" xmlns="http://www.w3.org/2000/svg">
<path d="M8.4568 22.8554V97.3794H115.543V22.8554H8.4568ZM5.6358 0.299805H118.364C121.477 0.299805 124 2.7798 124 5.8488V100.151C123.994 100.886 123.844 101.612 123.557 102.289C123.27 102.966 122.853 103.579 122.329 104.095C121.805 104.61 121.185 105.017 120.503 105.293C119.822 105.568 119.093 105.706 118.358 105.7H5.642C2.5234 105.7 0 103.22 0 100.151V5.8488C0 2.7798 2.5234 0.299805 5.642 0.299805M38.0494 11.2056C38.0494 8.9116 39.9466 7.0454 42.2778 7.0454C44.6152 7.0454 46.5062 8.90541 46.5062 11.2056V97.3794C46.5062 99.6734 44.6152 101.533 42.2778 101.533C41.7274 101.538 41.1814 101.435 40.671 101.229C40.1607 101.023 39.6959 100.718 39.3032 100.332C38.9106 99.9464 38.5978 99.4871 38.3826 98.9805C38.1675 98.4739 38.0543 97.9298 38.0494 97.3794V11.2056ZM81.2014 7.2376C83.5388 7.2376 85.4298 9.0976 85.4298 11.3916V42.3606H115.872C118.209 42.3606 120.106 44.2268 120.106 46.527C120.106 48.821 118.209 50.6872 115.878 50.6872L85.4298 50.681V69.6654H116.442C118.78 69.6654 120.671 71.5254 120.671 73.8256C120.671 76.1196 118.78 77.9858 116.442 77.9858H85.4298V97.5654C85.4257 98.1163 85.3131 98.661 85.0983 99.1684C84.8836 99.6758 84.5709 100.136 84.1781 100.522C83.7854 100.909 83.3204 101.214 82.8096 101.42C82.2988 101.627 81.7523 101.73 81.2014 101.726C80.0909 101.734 79.0225 101.301 78.2308 100.522C77.4392 99.7433 76.989 98.6821 76.9792 97.5716L76.973 77.9858H6.2062C5.6558 77.9907 5.10982 77.8872 4.59944 77.681C4.08906 77.4749 3.62428 77.1703 3.23163 76.7846C2.83898 76.3988 2.52616 75.9395 2.31103 75.4329C2.09589 74.9263 1.98266 74.3822 1.9778 73.8318C1.9778 71.5316 3.8688 69.6654 6.2062 69.6654H76.9668V50.681L5.6358 50.6872C5.08488 50.6921 4.5384 50.5883 4.02762 50.3819C3.51684 50.1754 3.05178 49.8702 2.65905 49.4838C2.26632 49.0974 1.95363 48.6374 1.73886 48.13C1.52409 47.6227 1.41145 47.0779 1.4074 46.527C1.4074 44.233 3.3046 42.3668 5.6358 42.3668L76.9668 42.3606V11.3916C76.9668 9.0976 78.864 7.2376 81.1952 7.2376" fill="#1B4A4B"/>
</svg>
