<svg width="122" height="122" viewBox="0 0 122 122" fill="none" xmlns="http://www.w3.org/2000/svg">
<path d="M73.9403 41.072V13.1189C73.9403 8.15891 69.9191 4.12891 64.9503 4.12891H22.5246C17.5469 4.12891 13.5257 8.15005 13.5257 13.1189V117.872M3.59686 117.872H47.5991M13.5257 27.2283H35.3143M13.5257 49.9292H47.5991M65.2426 117.872C65.286 113.34 66.4743 108.891 68.6969 104.941C71.0178 100.842 74.3767 97.4258 78.4361 95.0361C82.4956 92.6465 87.1125 91.3674 91.8229 91.3275C96.5354 91.3677 101.154 92.6477 105.215 95.0389C109.276 97.4302 112.636 100.848 114.958 104.95C117.172 108.891 118.368 113.337 118.412 117.872M91.8229 87.8555C95.9337 87.8555 99.8762 86.2224 102.783 83.3156C105.69 80.4088 107.323 76.4663 107.323 72.3555C107.323 68.2446 105.69 64.3021 102.783 61.3953C99.8762 58.4885 95.9337 56.8555 91.8229 56.8555C87.712 56.8555 83.7695 58.4885 80.8627 61.3953C77.9559 64.3021 76.3229 68.2446 76.3229 72.3555C76.3229 76.4663 77.9559 80.4088 80.8627 83.3156C83.7695 86.2224 87.712 87.8555 91.8229 87.8555Z" stroke="#1B4A4B" stroke-width="6.86" stroke-linecap="round" stroke-linejoin="round"/>
</svg>
