<svg width="94" height="104" viewBox="0 0 94 104" fill="none" xmlns="http://www.w3.org/2000/svg">
<path fill-rule="evenodd" clip-rule="evenodd" d="M6.55533 6.38834C0.499999 12.4385 0.5 22.1828 0.5 41.6663V62.333C0.5 81.8165 0.499999 91.5608 6.55533 97.611C12.6055 103.666 22.3498 103.666 41.8333 103.666H52.1667C71.6502 103.666 81.3945 103.666 87.4447 97.611C93.5 91.5608 93.5 81.8165 93.5 62.333V41.6663C93.5 22.1828 93.5 12.4385 87.4447 6.38834C81.3945 0.333007 71.6502 0.333008 52.1667 0.333008H41.8333C22.3498 0.333008 12.6055 0.333007 6.55533 6.38834ZM26.3333 37.7913C25.3056 37.7913 24.32 38.1996 23.5933 38.9263C22.8666 39.653 22.4583 40.6386 22.4583 41.6663C22.4583 42.6941 22.8666 43.6797 23.5933 44.4064C24.32 45.1331 25.3056 45.5413 26.3333 45.5413H67.6667C68.6944 45.5413 69.68 45.1331 70.4067 44.4064C71.1334 43.6797 71.5417 42.6941 71.5417 41.6663C71.5417 40.6386 71.1334 39.653 70.4067 38.9263C69.68 38.1996 68.6944 37.7913 67.6667 37.7913H26.3333ZM26.3333 58.458C25.3056 58.458 24.32 58.8663 23.5933 59.593C22.8666 60.3197 22.4583 61.3053 22.4583 62.333C22.4583 63.3607 22.8666 64.3463 23.5933 65.073C24.32 65.7997 25.3056 66.208 26.3333 66.208H52.1667C53.1944 66.208 54.18 65.7997 54.9067 65.073C55.6334 64.3463 56.0417 63.3607 56.0417 62.333C56.0417 61.3053 55.6334 60.3197 54.9067 59.593C54.18 58.8663 53.1944 58.458 52.1667 58.458H26.3333Z" fill="#1B4A4B"/>
</svg>
