<svg width="104" height="94" viewBox="0 0 104 94" fill="none" xmlns="http://www.w3.org/2000/svg">
<path fill-rule="evenodd" clip-rule="evenodd" d="M0.333328 21.1667C0.333328 11.4223 0.333328 6.55533 3.36099 3.52767C6.38866 0.5 11.2557 0.5 21 0.5H83C92.7443 0.5 97.6113 0.5 100.639 3.52767C103.667 6.55533 103.667 11.4223 103.667 21.1667C103.667 30.911 103.667 35.778 100.639 38.8057C97.6113 41.8333 92.7443 41.8333 83 41.8333H21C11.2557 41.8333 6.38866 41.8333 3.36099 38.8057C0.333328 35.778 0.333328 30.911 0.333328 21.1667ZM21 17.2917C19.9723 17.2917 18.9867 17.6999 18.26 18.4266C17.5333 19.1533 17.125 20.139 17.125 21.1667C17.125 22.1944 17.5333 23.18 18.26 23.9067C18.9867 24.6334 19.9723 25.0417 21 25.0417H31.3333C32.361 25.0417 33.3467 24.6334 34.0734 23.9067C34.8001 23.18 35.2083 22.1944 35.2083 21.1667C35.2083 20.139 34.8001 19.1533 34.0734 18.4266C33.3467 17.6999 32.361 17.2917 31.3333 17.2917H21ZM42.9583 21.1667C42.9583 20.139 43.3666 19.1533 44.0933 18.4266C44.82 17.6999 45.8056 17.2917 46.8333 17.2917H83C84.0277 17.2917 85.0133 17.6999 85.74 18.4266C86.4667 19.1533 86.875 20.139 86.875 21.1667C86.875 22.1944 86.4667 23.18 85.74 23.9067C85.0133 24.6334 84.0277 25.0417 83 25.0417H46.8333C45.8056 25.0417 44.82 24.6334 44.0933 23.9067C43.3666 23.18 42.9583 22.1944 42.9583 21.1667ZM0.333328 72.8333C0.333328 63.089 0.333328 58.222 3.36099 55.1943C6.38866 52.1667 11.2557 52.1667 21 52.1667H83C92.7443 52.1667 97.6113 52.1667 100.639 55.1943C103.667 58.222 103.667 63.089 103.667 72.8333C103.667 82.5777 103.667 87.4447 100.639 90.4723C97.6113 93.5 92.7443 93.5 83 93.5H21C11.2557 93.5 6.38866 93.5 3.36099 90.4723C0.333328 87.4447 0.333328 82.5777 0.333328 72.8333ZM21 68.9583C19.9723 68.9583 18.9867 69.3666 18.26 70.0933C17.5333 70.82 17.125 71.8056 17.125 72.8333C17.125 73.861 17.5333 74.8467 18.26 75.5734C18.9867 76.3001 19.9723 76.7083 21 76.7083H31.3333C32.361 76.7083 33.3467 76.3001 34.0734 75.5734C34.8001 74.8467 35.2083 73.861 35.2083 72.8333C35.2083 71.8056 34.8001 70.82 34.0734 70.0933C33.3467 69.3666 32.361 68.9583 31.3333 68.9583H21ZM42.9583 72.8333C42.9583 71.8056 43.3666 70.82 44.0933 70.0933C44.82 69.3666 45.8056 68.9583 46.8333 68.9583H83C84.0277 68.9583 85.0133 69.3666 85.74 70.0933C86.4667 70.82 86.875 71.8056 86.875 72.8333C86.875 73.861 86.4667 74.8467 85.74 75.5734C85.0133 76.3001 84.0277 76.7083 83 76.7083H46.8333C45.8056 76.7083 44.82 76.3001 44.0933 75.5734C43.3666 74.8467 42.9583 73.861 42.9583 72.8333Z" fill="#1B4A4B"/>
</svg>
