<svg width="104" height="96" viewBox="0 0 104 96" fill="none" xmlns="http://www.w3.org/2000/svg">
<path d="M79.125 0.208008H24.875C18.3661 0.208008 12.1239 2.79364 7.5214 7.3961C2.91895 11.9986 0.333313 18.2408 0.333313 24.7497V71.2497C0.333313 74.4725 0.968102 77.6638 2.20144 80.6414C3.43477 83.6189 5.2425 86.3243 7.5214 88.6032C12.1239 93.2057 18.3661 95.7913 24.875 95.7913H79.125C85.6296 95.7777 91.864 93.1877 96.4635 88.5882C101.063 83.9887 103.653 77.7543 103.667 71.2497V24.7497C103.653 18.245 101.063 12.0107 96.4635 7.41117C91.864 2.81167 85.6296 0.221659 79.125 0.208008ZM60.2666 43.1947C57.7246 44.6444 54.8488 45.4068 51.9225 45.4068C48.9962 45.4068 46.1203 44.6444 43.5783 43.1947L8.18665 22.8897C8.64427 18.7837 10.5995 14.9906 13.6784 12.2358C16.7572 9.48106 20.7436 7.95801 24.875 7.95801H79.125C83.2531 7.96932 87.2334 9.49629 90.3099 12.2489C93.3863 15.0016 95.3448 18.7882 95.8133 22.8897L60.2666 43.1947Z" fill="#1B4A4B"/>
</svg>
