<svg width="110" height="86" viewBox="0 0 110 86" fill="none" xmlns="http://www.w3.org/2000/svg">
<path d="M0.75 72.0625C0.75 75.6595 2.1789 79.1092 4.72236 81.6526C7.26583 84.1961 10.7155 85.625 14.3125 85.625H95.6875C99.2845 85.625 102.734 84.1961 105.278 81.6526C107.821 79.1092 109.25 75.6595 109.25 72.0625V34.7656H0.75V72.0625ZM16.7344 53.6562C16.7344 51.7293 17.4999 49.8812 18.8624 48.5187C20.225 47.1561 22.073 46.3906 24 46.3906H35.625C37.552 46.3906 39.4 47.1561 40.7626 48.5187C42.1251 49.8812 42.8906 51.7293 42.8906 53.6562V58.5C42.8906 60.427 42.1251 62.275 40.7626 63.6376C39.4 65.0001 37.552 65.7656 35.625 65.7656H24C22.073 65.7656 20.225 65.0001 18.8624 63.6376C17.4999 62.275 16.7344 60.427 16.7344 58.5V53.6562ZM95.6875 0.375H14.3125C10.7155 0.375 7.26583 1.8039 4.72236 4.34736C2.1789 6.89083 0.75 10.3405 0.75 13.9375V20.2344H109.25V13.9375C109.25 10.3405 107.821 6.89083 105.278 4.34736C102.734 1.8039 99.2845 0.375 95.6875 0.375Z" fill="#1B4A4B"/>
</svg>
