<svg width="104" height="99" viewBox="0 0 104 99" fill="none" xmlns="http://www.w3.org/2000/svg">
<path fill-rule="evenodd" clip-rule="evenodd" d="M15.8333 36.5006C15.8333 26.9087 19.6437 17.7095 26.4263 10.927C33.2089 4.14439 42.408 0.333984 52 0.333984C61.592 0.333984 70.7911 4.14439 77.5737 10.927C84.3563 17.7095 88.1667 26.9087 88.1667 36.5006V41.8481C96.9293 43.1036 103.667 50.6418 103.667 59.7506V61.0423C103.666 63.2827 103.217 65.5002 102.346 67.5644C101.475 69.6286 100.2 71.4976 98.596 73.0614C96.9917 74.6252 95.0907 75.8522 93.005 76.6701C90.9193 77.4879 88.691 77.8802 86.4513 77.8236C82.628 88.777 72.9043 96.1601 62.4108 98.0305C59.9825 98.9192 57.1098 98.5006 54.5833 98.5006C52.5279 98.5006 50.5567 97.6841 49.1032 96.2307C47.6498 94.7773 46.8333 92.8061 46.8333 90.7506C46.8333 88.6952 47.6498 86.724 49.1032 85.2706C50.5567 83.8172 52.5279 83.0006 54.5833 83.0006H59.75C60.9632 83.0004 62.1595 83.285 63.2427 83.8315C64.3258 84.378 65.2655 85.1712 65.9862 86.1471C72.6822 82.9593 77.8333 76.2271 77.8333 67.5006V36.5006C77.8333 29.6492 75.1116 23.0784 70.2669 18.2337C65.4222 13.389 58.8514 10.6673 52 10.6673C45.1486 10.6673 38.5778 13.389 33.7331 18.2337C28.8884 23.0784 26.1667 29.6492 26.1667 36.5006V68.7923C26.1667 71.1903 25.2141 73.4901 23.5184 75.1857C21.8228 76.8814 19.523 77.834 17.125 77.834C12.6716 77.834 8.40054 76.0649 5.25149 72.9158C2.10245 69.7668 0.333329 65.4957 0.333329 61.0423V59.7506C0.332213 55.4014 1.89862 51.1975 4.74543 47.9094C7.59224 44.6214 11.5287 42.4695 15.8333 41.8481V36.5006ZM15.8333 52.4398C14.3217 52.9743 13.013 53.9644 12.0876 55.2738C11.1623 56.5832 10.6658 58.1473 10.6667 59.7506V61.0423C10.6667 64.1681 12.8883 66.7773 15.8333 67.3715V52.4398ZM88.1667 52.4398V67.3715C91.1117 66.7721 93.3333 64.1681 93.3333 61.0423V59.7506C93.3342 58.1473 92.8377 56.5832 91.9123 55.2738C90.987 53.9644 89.6783 52.9743 88.1667 52.4398Z" fill="#1B4A4B"/>
</svg>
