<svg width="94" height="104" viewBox="0 0 94 104" fill="none" xmlns="http://www.w3.org/2000/svg">
<path d="M83.1667 82.9997H31.5C28.7594 82.9997 26.1311 81.911 24.1932 79.9731C22.2554 78.0352 21.1667 75.4069 21.1667 72.6663V10.6663C21.1667 7.92577 22.2554 5.29745 24.1932 3.35957C26.1311 1.42169 28.7594 0.333008 31.5 0.333008H36.6667V26.1663L47 18.4163L57.3333 26.1663V0.333008H83.1667C85.9072 0.333008 88.5356 1.42169 90.4734 3.35957C92.4113 5.29745 93.5 7.92577 93.5 10.6663V72.6663C93.5 75.4069 92.4113 78.0352 90.4734 79.9731C88.5356 81.911 85.9072 82.9997 83.1667 82.9997ZM72.8333 93.333V103.666H10.8333C8.09276 103.666 5.46444 102.578 3.52656 100.64C1.58869 98.7019 0.5 96.0736 0.5 93.333V20.9997H10.8333V93.333H72.8333Z" fill="#1B4A4B"/>
</svg>
