<svg width="104" height="84" viewBox="0 0 104 84" fill="none" xmlns="http://www.w3.org/2000/svg">
<path d="M68.7917 39.5462L83 31.2795C83.8611 30.7628 84.2917 30.0309 84.2917 29.0837C84.2917 28.1364 83.8611 27.4045 83 26.8878L68.7917 18.6212C68.0167 18.1906 67.1556 17.9753 66.2083 17.9753C65.2611 17.9753 64.4 18.1906 63.625 18.6212L49.4167 26.8878C48.5556 27.4045 48.125 28.1364 48.125 29.0837C48.125 30.0309 48.5556 30.7628 49.4167 31.2795L63.625 39.5462C64.4 39.9767 65.2611 40.192 66.2083 40.192C67.1556 40.192 68.0167 39.9767 68.7917 39.5462ZM68.7917 55.1753L77.8333 50.0087C78.6083 49.5781 79.2335 48.9529 79.7088 48.1332C80.1842 47.3134 80.4201 46.4316 80.4167 45.4878V37.6087L68.7917 44.3253C68.0167 44.7559 67.1556 44.9712 66.2083 44.9712C65.2611 44.9712 64.4 44.7559 63.625 44.3253L52 37.6087V45.4878C52 46.435 52.2377 47.3185 52.713 48.1383C53.1883 48.9581 53.8118 49.5815 54.5833 50.0087L63.625 55.1753C64.4 55.6059 65.2611 55.8212 66.2083 55.8212C67.1556 55.8212 68.0167 55.6059 68.7917 55.1753ZM103.667 11.0003V73.0003C103.667 75.842 102.656 78.2755 100.634 80.3008C98.6119 82.3262 96.1784 83.3371 93.3333 83.3337H72.4083C70.9444 83.3337 69.7182 82.8377 68.7297 81.8457C67.7411 80.8537 67.2451 79.6274 67.2417 78.167C67.2382 76.7065 67.7342 75.4803 68.7297 74.4883C69.7251 73.4963 70.9513 73.0003 72.4083 73.0003H93.3333V11.0003H10.6667V11.7753C10.6667 13.2392 10.1707 14.4672 9.17867 15.4592C8.18667 16.4512 6.96045 16.9454 5.5 16.942C4.03956 16.9385 2.81333 16.4425 1.82134 15.454C0.829335 14.4654 0.333335 13.2392 0.333335 11.7753V11.0003C0.333335 8.15866 1.346 5.72688 3.37133 3.70499C5.39667 1.6831 7.82845 0.670437 10.6667 0.666992H93.3333C96.175 0.666992 98.6085 1.67966 100.634 3.70499C102.659 5.73032 103.67 8.1621 103.667 11.0003ZM31.3333 83.3337C29.9556 83.3337 28.75 82.9238 27.7167 82.104C26.6833 81.2842 26.0375 80.1872 25.7792 78.8128C24.8319 73.3878 22.4002 68.7809 18.4838 64.992C14.5675 61.2031 9.89511 58.835 4.46667 57.8878C3.175 57.7156 2.16406 57.0922 1.43383 56.0175C0.703613 54.9428 0.336779 53.7149 0.333335 52.3337C0.333335 50.8698 0.806946 49.6435 1.75417 48.655C2.70139 47.6664 3.82083 47.2565 5.1125 47.4253C13.2069 48.4587 20.1182 51.86 25.8463 57.6295C31.5744 63.3989 34.9965 70.3309 36.1125 78.4253C36.2847 79.8031 35.8972 80.9656 34.95 81.9128C34.0028 82.86 32.7972 83.3337 31.3333 83.3337ZM52 83.3337C50.5361 83.3337 49.3099 82.86 48.3213 81.9128C47.3328 80.9656 46.7507 79.76 46.575 78.2962C45.3694 67.2739 40.871 57.9309 33.0797 50.267C25.2883 42.6031 15.8798 38.2114 4.85417 37.092C3.47639 36.9198 2.37761 36.317 1.55783 35.2837C0.738057 34.2503 0.32989 33.0448 0.333335 31.667C0.333335 30.2031 0.786279 28.9545 1.69217 27.9212C2.59806 26.8878 3.69511 26.4573 4.98334 26.6295C18.8472 27.7489 30.6444 33.1309 40.375 42.7753C50.1056 52.4198 55.6167 64.1739 56.9083 78.0378C57.0806 79.5017 56.6707 80.7503 55.6787 81.7837C54.6867 82.817 53.4604 83.3337 52 83.3337ZM6.79167 83.3337C4.98333 83.3337 3.454 82.7085 2.20367 81.4582C0.953334 80.2078 0.32989 78.6802 0.333335 76.8753C0.336779 75.0704 0.961945 73.5411 2.20883 72.2873C3.45572 71.0335 4.98333 70.4101 6.79167 70.417C8.6 70.4239 10.1293 71.049 11.3797 72.2925C12.63 73.5359 13.2534 75.0635 13.25 76.8753C13.2466 78.6871 12.6214 80.2164 11.3745 81.4633C10.1276 82.7102 8.6 83.3337 6.79167 83.3337Z" fill="#1B4A4B"/>
</svg>
