<svg width="100" height="96" viewBox="0 0 100 96" fill="none" xmlns="http://www.w3.org/2000/svg">
<path d="M97.4203 16.2433L50.9203 0.743315C50.323 0.543895 49.677 0.543895 49.0797 0.743315L2.57969 16.2433C2.00142 16.4364 1.49851 16.8064 1.14211 17.301C0.785708 17.7956 0.593874 18.3898 0.59375 18.9994V57.7494C0.59375 58.5202 0.899943 59.2594 1.44497 59.8044C1.99 60.3495 2.72921 60.6557 3.5 60.6557C4.27079 60.6557 5.01 60.3495 5.55503 59.8044C6.10006 59.2594 6.40625 58.5202 6.40625 57.7494V23.0294L25.1419 29.2778C22.7792 32.7695 21.1782 36.7195 20.443 40.8708C19.7078 45.0221 19.8549 49.2816 20.8747 53.3723C21.8945 57.463 23.7642 61.2932 26.3621 64.6135C28.96 67.9339 32.2279 70.67 35.9531 72.6439C26.6289 75.8069 18.5156 82.1328 12.7031 91.0502C12.369 91.6901 12.285 92.4315 12.4675 93.13C12.65 93.8284 13.0859 94.434 13.6904 94.8287C14.2948 95.2234 15.0245 95.379 15.7374 95.2652C16.4503 95.1514 17.0953 94.7764 17.5469 94.2132C25.0402 82.7383 36.8637 76.1557 50 76.1557C63.1362 76.1557 74.9598 82.7383 82.4531 94.2132C82.9019 94.7884 83.5507 95.1737 84.2705 95.2927C84.9903 95.4117 85.7285 95.2556 86.3385 94.8554C86.9485 94.4552 87.3857 93.8402 87.5633 93.1326C87.7408 92.4249 87.6457 91.6764 87.2969 91.0357C81.4844 82.1329 73.3808 75.8069 64.0469 72.6294C67.7701 70.6533 71.0357 67.9156 73.6311 64.5943C76.2266 61.2729 78.0938 57.4424 79.1113 53.3519C80.1287 49.2614 80.2737 45.0025 79.5368 40.8523C78.7998 36.7021 77.1975 32.7535 74.8339 29.2633L97.4203 21.7555C97.9982 21.5621 98.5008 21.192 98.8568 20.6974C99.2129 20.2028 99.4045 19.6088 99.4045 18.9994C99.4045 18.39 99.2129 17.796 98.8568 17.3014C98.5008 16.8068 97.9982 16.4367 97.4203 16.2433ZM74.2187 46.1244C74.2205 49.9836 73.2999 53.7873 71.5338 57.2186C69.7677 60.6499 67.2072 63.6095 64.0656 65.8508C60.9239 68.0921 57.2922 69.5502 53.4729 70.1036C49.6537 70.657 45.7574 70.2897 42.1089 69.0322C38.4603 67.7748 35.165 65.6637 32.4977 62.8748C29.8303 60.0858 27.868 56.6999 26.7742 52.9989C25.6805 49.298 25.487 45.3893 26.21 41.5984C26.9329 37.8076 28.5512 34.2444 30.9302 31.2057L49.0797 37.2555C49.677 37.4549 50.323 37.4549 50.9203 37.2555L69.0698 31.2057C72.4111 35.4602 74.2246 40.7147 74.2187 46.1244ZM50 31.4382L12.7031 18.9994L50 6.56066L87.2969 18.9994L50 31.4382Z" fill="#1B4A4B"/>
</svg>
